#!OML:ASF E:\acrobat2\Project_11_07_03\Capture day 1\Session 1\Acrobat.ASF
:FULLY-SPECIFIED
:DEGREES
1165
root 13.7512 12.1404 9.17022 -6.76218 8.72257 3.19795
lowerback 24.9749 -0.997424 6.60179
upperback 9.51844 0.412422 1.65248
thorax -3.28936 0.339886 -2.08744
lowerneck -3.32268 -3.32466 -0.754023
upperneck -14.4566 -4.28654 1.75786
head -4.0856 -2.15409 0.821068
rclavicle 3.18055e-015 -9.54166e-015
rhumerus 32.4581 39.2901 -49.6195
rradius 46.4033
rwrist 12.9099
rhand -9.11125 -23.4539
rfingers 7.12502
rthumb 16.8393 -52.7438
lclavicle 3.18055e-015 -9.54166e-015
lhumerus 8.48516 -35.6198 51.643
lradius 46.8248
lwrist -2.24434
lhand -20.2268 -24.9599
lfingers 7.12502
lthumb 6.12086 4.93167
rfemur -60.1597 -12.4149 15.1138
rtibia 71.2319
rfoot -212.965 2.12198
rtoes -12.6857
lfemur -53.5869 -2.13372 -10.2889
ltibia 72.6726
lfoot -184.004 23.0452
ltoes 42.0715
1166
root 13.7086 12.2489 9.14859 -6.57127 8.59834 3.19795
lowerback 24.8353 -1.01558 6.57627
upperback 9.50305 0.366657 1.58635
thorax -3.24211 0.318412 -2.13202
lowerneck -3.4346 -3.34009 -0.771501
upperneck -14.3446 -4.31606 1.6915
head -4.02461 -2.16554 0.797872
rclavicle -1.74931e-014 -4.77083e-015
rhumerus 32.0663 39.5033 -49.912
rradius 45.7178
rwrist 13.0157
rhand -8.47833 -23.6387
rfingers 7.12502
rthumb 17.4485 -52.8756
lclavicle -1.74931e-014 -4.77083e-015
lhumerus 7.56871 -35.9302 52.44
lradius 45.7037
lwrist -2.17522
lhand -18.5126 -23.3198
lfingers 7.12502
lthumb 7.77564 6.51723
rfemur -59.7096 -12.3389 15.3618
rtibia 72.4041
rfoot -213.01 2.11138
rtoes -12.0445
lfemur -53.1995 -2.18338 -10.0502
ltibia 73.8338
lfoot -183.602 22.9547
ltoes 42.5905
1167
root 13.6664 12.3599 9.12598 -6.37141 8.48443 3.19316
lowerback 24.684 -1.03768 6.5645
upperback 9.47727 0.318678 1.52125
thorax -3.20046 0.295695 -2.18277
lowerneck -3.55236 -3.36201 -0.788705
upperneck -14.2143 -4.35595 1.60963
head -3.95635 -2.18165 0.769277
rclavicle 9.54166e-015 2.06736e-014
rhumerus 31.6304 39.6852 -50.2231
rradius 44.9924
rwrist 13.0678
rhand -7.81375 -23.8536
rfingers 7.12502
rthumb 18.088 -53.0326
lclavicle 9.54166e-015 2.06736e-014
lhumerus 6.61458 -36.2682 53.2702
lradius 44.6354
lwrist -2.07475
lhand -16.7178 -21.7018
lfingers 7.12502
lthumb 9.50761 8.06369
rfemur -59.243 -12.2731 15.5993
rtibia 73.621
rfoot -213.028 2.06402
rtoes -11.2025
lfemur -52.8107 -2.21768 -9.82333
ltibia 75.0087
lfoot -183.21 22.8426
ltoes 43.0309
1168
root 13.6247 12.4733 9.10182 -6.14768 8.38655 3.2136
lowerback 24.5198 -1.05736 6.53782
upperback 9.43496 0.269964 1.45076
thorax -3.17114 0.271691 -2.23083
lowerneck -3.6605 -3.39716 -0.809033
upperneck -14.0795 -4.41418 1.52224
head -3.88841 -2.20668 0.739984
rclavicle 9.54166e-015 -3.65764e-014
rhumerus 31.1213 39.8333 -50.5634
rradius 44.2416
rwrist 13.0802
rhand -7.14915 -24.1008
rfingers 7.12502
rthumb 18.7274 -53.2193
lclavicle 9.54166e-015 -3.65764e-014
lhumerus 5.6164 -36.6342 54.1379
lradius 43.6293
lwrist -1.96201
lhand -14.878 -20.1414
lfingers 7.12502
lthumb 11.2824 9.5352
rfemur -58.7844 -12.2268 15.7927
rtibia 74.8704
rfoot -213.01 1.97213
rtoes -10.0965
lfemur -52.4265 -2.24946 -9.64017
ltibia 76.2105
lfoot -182.862 22.711
ltoes 43.3375
1169
root 13.583 12.589 9.07559 -5.89145 8.3049 3.28667
lowerback 24.3459 -1.06939 6.4616
upperback 9.37626 0.219451 1.36899
thorax -3.1561 0.245257 -2.26266
lowerneck -3.75231 -3.44088 -0.858323
upperneck -13.9449 -4.48029 1.46676
head -3.82232 -2.23555 0.726698
rclavicle -1.19271e-014 -3.49861e-014
rhumerus 30.5289 39.9413 -50.9426
rradius 43.4768
rwrist 13.0601
rhand -6.50306 -24.3733
rfingers 7.12502
rthumb 19.3487 -53.4307
lclavicle -1.19271e-014 -3.49861e-014
lhumerus 4.58659 -37.0359 55.0214
lradius 42.6815
lwrist -1.81858
lhand -13.0209 -18.6867
lfingers 7.12502
lthumb 13.073 10.8836
rfemur -58.3554 -12.1982 15.9173
rtibia 76.1309
rfoot -212.959 1.86429
rtoes -8.76013
lfemur -52.0504 -2.28614 -9.52985
ltibia 77.4503
lfoot -182.566 22.5509
ltoes 43.5071
1170
root 13.5414 12.707 9.04756 -5.60536 8.24345 3.42933
lowerback 24.1679 -1.07189 6.31801
upperback 9.30188 0.16597 1.26929
thorax -3.15756 0.215611 -2.27502
lowerneck -3.8099 -3.49044 -0.915137
upperneck -13.8233 -4.5524 1.42848
head -3.7668 -2.2678 0.721487
rclavicle 3.89618e-014 3.18055e-014
rhumerus 29.8365 39.9971 -51.3891
rradius 42.691
rwrist 13.0141
rhand -5.90589 -24.6707
rfingers 7.12502
rthumb 19.9228 -53.6695
lclavicle 3.89618e-014 3.18055e-014
lhumerus 3.5512 -37.4921 55.8912
lradius 41.7805
lwrist -1.62893
lhand -11.1626 -17.3939
lfingers 7.12502
lthumb 14.8639 12.0529
rfemur -57.9559 -12.1901 15.9573
rtibia 77.3879
rfoot -212.882 1.77048
rtoes -7.33643
lfemur -51.6825 -2.33075 -9.51346
ltibia 78.7326
lfoot -182.37 22.3575
ltoes 43.4998
1171
root 13.4999 12.827 9.0185 -5.30505 8.2194 3.64106
lowerback 23.9926 -1.07577 6.10945
upperback 9.21932 0.0965656 1.14874
thorax -3.17127 0.176921 -2.26899
lowerneck -3.83785 -3.54512 -0.951063
upperneck -13.7211 -4.63266 1.38037
head -3.72453 -2.30484 0.710703
rclavicle 1.27222e-014 1.43125e-014
rhumerus 29.0588 39.9956 -51.9118
rradius 41.8753
rwrist 12.9276
rhand -5.36712 -25.0178
rfingers 7.12502
rthumb 20.4406 -53.9619
lclavicle 1.27222e-014 1.43125e-014
lhumerus 2.51007 -37.9826 56.7391
lradius 40.926
lwrist -1.41201
lhand -9.31429 -16.2904
lfingers 7.12502
lthumb 16.6439 13.016
rfemur -57.5626 -12.2231 15.9085
rtibia 78.6423
rfoot -212.784 1.71343
rtoes -5.91481
lfemur -51.3108 -2.40144 -9.59294
ltibia 80.2397
lfoot -192.134 16.4381
ltoes 43.3477
